<svg xmlns="http://www.w3.org/2000/svg" viewBox="0 0 59.67 76"><g id="Layer_2" data-name="Layer 2"><g id="Layer_1-2" data-name="Layer 1"><path d="M40.79,71.14l-12.64-3q-7.3-1.71-9.56-3a6.17,6.17,0,0,1-3.5-5.76,7.4,7.4,0,0,1,3.55-6.54q3.56-2.34,9.51-2.34a19.94,19.94,0,0,1,9,1.8q5.41,2.74,5.81,9.23H57.37Q57,50.1,48.85,44.07T29.2,38Q15.4,38,8.29,44.43A20.69,20.69,0,0,0,1.17,60.5Q1.17,71,8.35,76H52.73C50,74,46,72.37,40.79,71.14Z"/><path d="M53.23.37c-.16-.13-.34-.25-.5-.37H8.35l.1.07q4.29,3,15.78,5.52L32,7.3q6.84,1.47,10,3.37a6.15,6.15,0,0,1,3.15,5.52q0,6.11-6.44,8.35a27.59,27.59,0,0,1-8.82,1.17q-9.07,0-12.81-4.45Q15,18.83,14.36,13.89H0Q0,25.13,8.14,31.54T30.5,38Q44.42,38,52,31.45a20.65,20.65,0,0,0,7.63-16.39Q59.67,5.45,53.23.37Z"/></g></g></svg>