<svg width="40" height="40" viewBox="0 0 40 40" fill="none" xmlns="http://www.w3.org/2000/svg">
<path d="M0 22.0091V17.9892C9.94933 17.9892 17.9892 9.94933 17.9892 0H22.0091C22.0091 12.1603 12.1603 22.0091 0 22.0091Z" fill="white"/>
<path d="M40.0013 22.014C27.841 22.014 17.9922 12.1652 17.9922 0.00488281C17.9922 0.00488281 19.6002 0.00488281 22.0121 0.00488281C22.0121 9.95421 30.052 17.9941 40.0013 17.9941V22.014Z" fill="white"/>
<path d="M22.0091 39.9974C22.0091 39.9974 20.4011 39.9974 17.9892 39.9974C17.9892 30.0481 9.94933 22.0082 0 22.0082V17.9883C12.1603 17.9883 22.0091 27.8371 22.0091 39.9974Z" fill="white"/>
<path d="M22.0121 39.9964H17.9922C17.9922 27.8361 27.841 17.9873 40.0013 17.9873V22.0072C30.052 22.0072 22.0121 30.0471 22.0121 39.9964Z" fill="white"/>
</svg>
